<svg aria-hidden="true" style="position: absolute; width: 0; height: 0; overflow: hidden;" version="1.1" xmlns="http://www.w3.org/2000/svg" xmlns:xlink="http://www.w3.org/1999/xlink">
<defs>
<symbol id="icon-star-empty" viewBox="0 0 32 32">
<path d="M32 12.408l-11.056-1.607-4.944-10.018-4.944 10.018-11.056 1.607 8 7.798-1.889 11.011 9.889-5.199 9.889 5.199-1.889-11.011 8-7.798zM16 23.547l-6.983 3.671 1.334-7.776-5.65-5.507 7.808-1.134 3.492-7.075 3.492 7.075 7.807 1.134-5.65 5.507 1.334 7.776-6.983-3.671z"></path>
</symbol>
<symbol id="icon-star-full" viewBox="0 0 32 32">
<path d="M32 12.408l-11.056-1.607-4.944-10.018-4.944 10.018-11.056 1.607 8 7.798-1.889 11.011 9.889-5.199 9.889 5.199-1.889-11.011 8-7.798z"></path>
</symbol>
<symbol id="icon-github" viewBox="0 0 32 32">
<path d="M16 0.395c-8.836 0-16 7.163-16 16 0 7.069 4.585 13.067 10.942 15.182 0.8 0.148 1.094-0.347 1.094-0.77 0-0.381-0.015-1.642-0.022-2.979-4.452 0.968-5.391-1.888-5.391-1.888-0.728-1.849-1.776-2.341-1.776-2.341-1.452-0.993 0.11-0.973 0.11-0.973 1.606 0.113 2.452 1.649 2.452 1.649 1.427 2.446 3.743 1.739 4.656 1.33 0.143-1.034 0.558-1.74 1.016-2.14-3.554-0.404-7.29-1.777-7.29-7.907 0-1.747 0.625-3.174 1.649-4.295-0.166-0.403-0.714-2.030 0.155-4.234 0 0 1.344-0.43 4.401 1.64 1.276-0.355 2.645-0.532 4.005-0.539 1.359 0.006 2.729 0.184 4.008 0.539 3.054-2.070 4.395-1.64 4.395-1.64 0.871 2.204 0.323 3.831 0.157 4.234 1.026 1.12 1.647 2.548 1.647 4.295 0 6.145-3.743 7.498-7.306 7.895 0.574 0.497 1.085 1.47 1.085 2.963 0 2.141-0.019 3.864-0.019 4.391 0 0.426 0.288 0.925 1.099 0.768 6.354-2.118 10.933-8.113 10.933-15.18 0-8.837-7.164-16-16-16z"></path>
</symbol>
<symbol id="icon-search" viewBox="0 0 32 32">
<path d="M20 0.005c-6.627 0-12 5.373-12 12 0 2.026 0.507 3.933 1.395 5.608l-8.344 8.342 0.007 0.006c-0.652 0.641-1.058 1.529-1.058 2.516 0 1.949 1.58 3.529 3.529 3.529 0.985 0 1.874-0.406 2.515-1.059l-0.002-0.002 8.341-8.34c1.676 0.891 3.586 1.4 5.617 1.4 6.627 0 12-5.373 12-12s-5.373-12-12-12zM4.795 29.697c-0.322 0.334-0.768 0.543-1.266 0.543-0.975 0-1.765-0.789-1.765-1.764 0-0.498 0.21-0.943 0.543-1.266l-0.009-0.008 8.066-8.066c0.705 0.951 1.545 1.791 2.494 2.498l-8.063 8.063zM20 22.006c-5.522 0-10-4.479-10-10s4.478-10 10-10c5.521 0 10 4.478 10 10s-4.479 10-10 10zM20 5.005c0.275 0 0.5 0.224 0.5 0.5s-0.225 0.5-0.5 0.5c-3.314 0-6 2.687-6 6 0 0.276-0.224 0.5-0.5 0.5s-0.5-0.224-0.5-0.5c0-3.866 3.133-7 7-7z"></path>
</symbol>
<symbol id="icon-bulb" viewBox="0 0 32 32">
<path d="M16 0c-6.076 0-11 4.924-11 11 0 4.031 3.688 8.303 5.031 12.055 2.003 5.595 1.781 8.945 5.969 8.945 4.25 0 3.965-3.334 5.969-8.922 1.347-3.76 5.031-8.078 5.031-12.078 0-6.076-4.926-11-11-11zM18.592 27.176l-4.958 0.619c-0.177-0.512-0.367-1.111-0.598-1.893-0.003-0.010-0.007-0.021-0.009-0.031l6.188-0.773c-0.088 0.295-0.182 0.605-0.264 0.883-0.131 0.449-0.248 0.839-0.359 1.195zM12.736 24.908c-0.182-0.602-0.387-1.236-0.615-1.908h7.766c-0.123 0.359-0.246 0.719-0.352 1.059l-6.799 0.849zM16 30c-1.013 0-1.479-0.117-1.997-1.25l4.238-0.531c-0.614 1.654-1.061 1.781-2.241 1.781zM20.672 21h-9.333c-0.498-1.080-1.096-2.16-1.686-3.217-1.305-2.335-2.653-4.75-2.653-6.783 0-4.963 4.037-9 9-9s9 4.037 9 9c0 2.018-1.35 4.446-2.656 6.795-0.584 1.053-1.178 2.131-1.672 3.205zM16 5c0.275 0 0.5 0.224 0.5 0.5s-0.224 0.5-0.5 0.5c-2.757 0-5 2.243-5 5 0 0.276-0.224 0.5-0.5 0.5s-0.5-0.224-0.5-0.5c0-3.309 2.691-6 6-6z"></path>
</symbol>
<symbol id="icon-pen" viewBox="0 0 32 32">
<path d="M29.395 2.58c-1.645-1.643-3.811-2.58-5.946-2.58-1.801 0-3.459 0.668-4.67 1.877l-4.867 4.904c-0.015 0.014-0.032 0.023-0.047 0.038-0.008 0.008-0.013 0.019-0.021 0.026l0.002 0.002-10.329 10.409c-0.476 0.473-0.821 1.062-1.013 1.705l-2.349 8.508c-0.002 0.023-0.155 0.691-0.155 1.031 0 1.932 1.569 3.5 3.504 3.5 0.385 0 1.13-0.184 1.157-0.188l8.478-2.229c0.644-0.191 1.229-0.539 1.705-1.016l15.263-15.383c2.776-2.778 2.463-7.434-0.712-10.604zM16.014 23.795c-0.082-0.902-0.337-1.787-0.719-2.627l9.455-9.454c0.578 1.826 0.281 3.736-0.986 5.004-0.008 0.008-0.018 0.013-0.025 0.021l0.014 0.013-7.728 7.79c0-0.249 0.012-0.493-0.011-0.747zM14.793 20.256c-0.373-0.613-0.797-1.205-1.322-1.729-0.611-0.611-1.312-1.090-2.044-1.492l9.532-9.532c0.748 0.332 1.465 0.805 2.098 1.438 0.541 0.539 0.959 1.143 1.281 1.771l-9.545 9.544zM10.486 16.562c-0.926-0.373-1.896-0.586-2.868-0.599l7.703-7.762c1.179-1.15 2.896-1.481 4.587-1.062l-9.422 9.423zM4.167 29.873c-0.109 0.025-0.448 0.111-0.678 0.127-0.822-0.010-1.489-0.678-1.489-1.5 0.012-0.168 0.079-0.457 0.102-0.562l1.053-3.814c1.143-0.031 2.373 0.414 3.34 1.383 0.982 0.98 1.444 2.234 1.394 3.391l-3.722 0.975zM8.874 28.637c-0.024-1.342-0.57-2.738-1.672-3.838-1.042-1.043-2.406-1.645-3.766-1.699l0.996-3.607c0.072-0.24 0.215-0.477 0.391-0.684 2.006-1.436 5.091-1.012 7.234 1.133 2.267 2.266 2.617 5.586 0.871 7.568-0.116 0.061-0.233 0.119-0.359 0.156l-3.695 0.971zM28.691 11.772l-1.684 1.697c0-0.226 0.027-0.443 0.006-0.674-0.176-1.935-1.078-3.806-2.543-5.269-1.629-1.63-3.789-2.565-5.928-2.571l1.656-1.67c0.829-0.827 1.986-1.285 3.251-1.285 1.609 0 3.262 0.728 4.533 1.995 1.193 1.191 1.904 2.671 2.006 4.168 0.094 1.397-0.367 2.678-1.297 3.609z"></path>
</symbol>
<symbol id="icon-chevron-left" viewBox="0 0 20 20">
<path d="M12.452 4.516c0.446 0.436 0.481 1.043 0 1.576l-3.747 3.908 3.747 3.908c0.481 0.533 0.446 1.141 0 1.574-0.445 0.436-1.197 0.408-1.615 0-0.418-0.406-4.502-4.695-4.502-4.695-0.223-0.217-0.335-0.502-0.335-0.787s0.112-0.57 0.335-0.789c0 0 4.084-4.287 4.502-4.695s1.17-0.436 1.615 0z"></path>
</symbol>
<symbol id="icon-chevron-right" viewBox="0 0 20 20">
<path d="M9.163 4.516c0.418 0.408 4.502 4.695 4.502 4.695 0.223 0.219 0.335 0.504 0.335 0.789s-0.112 0.57-0.335 0.787c0 0-4.084 4.289-4.502 4.695-0.418 0.408-1.17 0.436-1.615 0-0.446-0.434-0.481-1.041 0-1.574l3.747-3.908-3.747-3.908c-0.481-0.533-0.446-1.141 0-1.576s1.197-0.409 1.615 0z"></path>
</symbol>
</defs>
</svg>
